<?xml version="1.0" encoding="utf-8"?>
<!-- Generator: Adobe Illustrator 23.0.1, SVG Export Plug-In . SVG Version: 6.00 Build 0)  -->
<svg version="1.1" id="Layer_1" xmlns="http://www.w3.org/2000/svg" xmlns:xlink="http://www.w3.org/1999/xlink" x="0px" y="0px"
	 viewBox="0 0 512 512" style="enable-background:new 0 0 512 512;" xml:space="preserve">
<style type="text/css">
	.st0{fill:#9C9A9B;}
	.st1{fill:#9C9A9B;stroke:#9C9A9B;stroke-width:20;stroke-miterlimit:10;}
</style>
<g>
	<path class="st0" d="M511.7,498.8l-12.8-51.2c-6.3-24.9-24.5-44.6-48.8-52.7l-94.7-31.6c-18.7-7.8-29-35-33.2-51.8
		c-0.8-3.2-1.4-6-1.7-8.3c5.6-5.1,11-11.1,15.7-17.5c1-0.7,2-1.6,2.7-2.8l1.6-2.2c4.6-6,12.2-16,12.2-35.3c0-7.6,2.3-10.7,2.6-11
		c3.3-0.8,6-3.2,7.3-6.4c1.2-2.9,11.4-29.1,11.4-46.6c0-0.9-0.1-1.7-0.3-2.6c-1.2-4.7-4.4-11.5-10.3-15.5v-56.6
		c0-34.4-10.5-48.5-21.6-56.6c-2.1-16.6-19.8-50-85.1-50C190.6,0,150,62.1,150,106.7v56.6c-5.9,4-9.2,10.9-10.3,15.5
		c-0.2,0.8-0.3,1.7-0.3,2.6c0,17.6,10.3,43.7,11.4,46.6c1.3,3.2,3.2,5.3,6.5,6.1c1.2,0.6,3.4,3.7,3.4,11.2c0,8.2,2.5,16.7,6.5,24.9
		c6,12.2,15.3,23.9,25.1,32.8c-0.4,2.2-0.9,5.1-1.7,8.3c-4.2,16.8-14.5,44-33.2,51.8l-94.7,31.6c-24.3,8.1-42.6,27.8-48.8,52.7
		L1,498.8c-1.4,5.7,2,11.5,7.8,12.9c0.9,0.2,1.7,0.3,2.6,0.3c4.8,0,9.2-3.2,10.3-8.1l12.8-51.2c4.4-17.8,17.5-31.9,34.9-37.7
		l95.4-31.8c32.2-13.4,45.7-57.5,48.6-77.5c0.4-2.9,0.6-5.3,0.6-7c0-3.2-1.4-6.2-3.9-8.2c-6.2-5.1-12.5-11.8-17.5-18.9
		c-6.3-8.8-10.6-18.3-10.6-26.2c0-15.9-6.6-24.8-12.8-28.9c-3.1-8.3-8-23.6-8.4-33.5c0.3-0.8,0.5-1.5,0-1.5
		c5.9,0,10.7-4.8,10.7-10.7v-64c0-34.8,33.3-85.3,85.3-85.3c49.5,0,62.3,21.9,63.8,30.4c-0.4,1.5-0.6,2.9-0.4,4.2
		c0.6,5.9,5,8.6,7.6,10.3c4.3,2.7,14.4,9.1,14.4,40.5v64c0,5.9,3.5,10.3,9.4,10.3c0.3,0.3,0.8,1.2,1.2,2c-0.5,9.9-5.4,25.1-8.4,33.4
		c-6.3,4.2-12.8,13-12.8,28.9c0,12.1-4.1,17.5-7.8,22.3c-0.9,1.2-1.7,2.3-2.4,3.3c-0.1,0.2-0.2,0.4-0.3,0.6l-0.8,0
		c-5,7.1-11.3,13.7-17.5,18.9c-2.5,2-3.9,5-3.9,8.2c0,1.7,0.2,4.1,0.6,7c2.9,20,16.4,64.1,48.6,77.5l95.4,31.8
		c17.4,5.8,30.4,19.9,34.9,37.7l12.8,51.2c1.2,4.9,5.5,8.1,10.3,8.1c0.9,0,1.7-0.1,2.6-0.3C509.7,510.3,513.1,504.5,511.7,498.8z"/>
	<line class="st1" x1="13" y1="502" x2="502.7" y2="502"/>
</g>
</svg>
